<svg width="116" height="84" viewBox="0 0 116 84" fill="none" xmlns="http://www.w3.org/2000/svg">
<path d="M36.8279 48.712V49H24.5879V48.712H26.1239C27.7879 48.712 28.6199 48.152 28.6199 47.032C28.6199 46.584 27.3079 42.52 24.6839 34.84H12.2999L10.6199 39.256C9.21188 43.128 8.50788 45.464 8.50788 46.264C8.50788 47.576 9.09988 48.392 10.2839 48.712H12.2999V49H3.37188V48.712H4.71588C5.73988 48.072 6.76388 46.744 7.78788 44.728C8.81188 42.744 10.4119 38.84 12.5879 33.016L19.4519 14.296H20.4599L32.1239 45.448C32.5399 46.6 33.0359 47.432 33.6119 47.944C34.1879 48.456 35.0199 48.712 36.1079 48.712H36.8279ZM12.3959 34.552H24.4919L18.4439 17.944L12.3959 34.552ZM74.5206 48.808C75.1286 48.808 75.5926 48.52 75.9126 47.944C76.2326 47.368 76.4086 46.664 76.4406 45.832H76.7286C76.7286 48.392 75.4326 49.672 72.8406 49.672C70.9526 49.672 69.3366 48.744 67.9926 46.888C66.9046 45.384 65.7366 43.272 64.4886 40.552V40.6L64.0566 39.592C63.0966 37.512 62.3126 36.104 61.7046 35.368C59.3686 32.456 56.2646 31 52.3926 31V45.928C52.3926 46.888 52.6326 47.592 53.1126 48.04C53.6246 48.488 54.4406 48.712 55.5606 48.712H57.2406V49H43.8486V48.712H45.3846C46.5366 48.712 47.3686 48.488 47.8806 48.04C48.3926 47.592 48.6486 46.888 48.6486 45.928V17.368C48.6486 16.216 48.4246 15.464 47.9766 15.112C47.5286 14.76 46.6646 14.584 45.3846 14.584H43.8486V14.296H49.1766C50.2326 14.296 51.9286 14.2 54.2646 14.008C56.8886 13.848 58.6006 13.768 59.4006 13.768C67.9766 13.768 72.2646 16.648 72.2646 22.408C72.2646 25.256 71.0806 27.496 68.7126 29.128C66.3446 30.792 63.4806 31.624 60.1206 31.624L58.3446 31.576V31.72C60.9046 32.36 63.1286 33.496 65.0166 35.128C66.9046 36.76 68.2966 38.456 69.1926 40.216C70.1206 42.008 70.9686 43.848 71.7366 45.736C72.6326 47.784 73.5606 48.808 74.5206 48.808ZM68.1366 22.648C68.1366 19.864 67.3206 17.736 65.6886 16.264C64.0566 14.792 61.7846 14.056 58.8726 14.056C56.4726 14.056 54.3126 14.504 52.3926 15.4V30.712C53.8006 30.84 54.6966 30.92 55.0806 30.952C56.8086 31.144 58.1046 31.24 58.9686 31.24C61.7206 31.24 63.9446 30.44 65.6406 28.84C67.3046 27.272 68.1366 25.208 68.1366 22.648ZM81.7956 21.784L82.2276 14.296H111.604L112.132 21.784H111.844L111.46 18.184C110.724 16.808 109.604 15.864 108.1 15.352C106.596 14.84 104.452 14.584 101.668 14.584C100.58 14.584 99.8276 14.728 99.4116 15.016C99.0276 15.304 98.8356 15.736 98.8356 16.312V45.928C98.8356 47.016 99.0436 47.752 99.4596 48.136C99.8756 48.52 100.756 48.712 102.1 48.712H103.636V49H90.2916V48.712H91.8756C93.1556 48.712 94.0036 48.52 94.4196 48.136C94.8676 47.752 95.0916 47.016 95.0916 45.928V16.36C95.0916 15.752 94.8836 15.304 94.4676 15.016C94.0516 14.728 93.2996 14.584 92.2116 14.584C89.4596 14.584 87.3316 14.84 85.8276 15.352C84.3556 15.864 83.2516 16.808 82.5156 18.184L82.0836 21.784H81.7956Z" fill="#9F3939"/>
<path d="M30.9799 55.4H32.1679V68H30.9799V66.236C30.1519 67.556 28.9399 68.216 27.3439 68.216C26.0599 68.216 24.9619 67.76 24.0499 66.848C23.1499 65.936 22.6999 64.82 22.6999 63.5C22.6999 62.18 23.1499 61.064 24.0499 60.152C24.9619 59.24 26.0599 58.784 27.3439 58.784C28.9399 58.784 30.1519 59.444 30.9799 60.764V55.4ZM24.9139 66.038C25.5979 66.722 26.4379 67.064 27.4339 67.064C28.4299 67.064 29.2699 66.722 29.9539 66.038C30.6379 65.342 30.9799 64.496 30.9799 63.5C30.9799 62.504 30.6379 61.664 29.9539 60.98C29.2699 60.284 28.4299 59.936 27.4339 59.936C26.4379 59.936 25.5979 60.284 24.9139 60.98C24.2299 61.664 23.8879 62.504 23.8879 63.5C23.8879 64.496 24.2299 65.342 24.9139 66.038ZM40.6412 58.784C41.9732 58.784 43.0472 59.258 43.8632 60.206C44.6912 61.142 45.1052 62.252 45.1052 63.536C45.1052 63.668 45.0932 63.854 45.0692 64.094H37.1672C37.2872 65.006 37.6712 65.732 38.3192 66.272C38.9792 66.8 39.7892 67.064 40.7492 67.064C41.4332 67.064 42.0212 66.926 42.5132 66.65C43.0172 66.362 43.3952 65.99 43.6472 65.534L44.6912 66.146C44.2952 66.782 43.7552 67.286 43.0712 67.658C42.3872 68.03 41.6072 68.216 40.7312 68.216C39.3152 68.216 38.1632 67.772 37.2752 66.884C36.3872 65.996 35.9432 64.868 35.9432 63.5C35.9432 62.156 36.3812 61.034 37.2572 60.134C38.1332 59.234 39.2612 58.784 40.6412 58.784ZM40.6412 59.936C39.7052 59.936 38.9192 60.218 38.2832 60.782C37.6592 61.334 37.2872 62.054 37.1672 62.942H43.8812C43.7612 61.994 43.3952 61.256 42.7832 60.728C42.1712 60.2 41.4572 59.936 40.6412 59.936ZM49.3794 61.358C49.3794 61.766 49.5594 62.09 49.9194 62.33C50.2794 62.57 50.7174 62.756 51.2334 62.888C51.7494 63.02 52.2654 63.17 52.7814 63.338C53.2974 63.494 53.7354 63.764 54.0954 64.148C54.4554 64.52 54.6354 65.012 54.6354 65.624C54.6354 66.392 54.3294 67.016 53.7174 67.496C53.1174 67.976 52.3374 68.216 51.3774 68.216C50.5134 68.216 49.7754 68.024 49.1634 67.64C48.5634 67.256 48.1434 66.758 47.9034 66.146L48.9114 65.552C49.0794 66.02 49.3794 66.392 49.8114 66.668C50.2554 66.932 50.7774 67.064 51.3774 67.064C51.9654 67.064 52.4574 66.95 52.8534 66.722C53.2494 66.482 53.4474 66.116 53.4474 65.624C53.4474 65.216 53.2674 64.892 52.9074 64.652C52.5474 64.412 52.1094 64.226 51.5934 64.094C51.0774 63.962 50.5614 63.818 50.0454 63.662C49.5294 63.494 49.0914 63.224 48.7314 62.852C48.3714 62.468 48.1914 61.97 48.1914 61.358C48.1914 60.626 48.4794 60.014 49.0554 59.522C49.6434 59.03 50.3814 58.784 51.2694 58.784C52.0014 58.784 52.6434 58.952 53.1954 59.288C53.7474 59.612 54.1554 60.056 54.4194 60.62L53.4294 61.196C53.0814 60.356 52.3614 59.936 51.2694 59.936C50.7534 59.936 50.3094 60.062 49.9374 60.314C49.5654 60.554 49.3794 60.902 49.3794 61.358ZM58.8083 61.358C58.8083 61.766 58.9883 62.09 59.3483 62.33C59.7083 62.57 60.1463 62.756 60.6623 62.888C61.1783 63.02 61.6943 63.17 62.2103 63.338C62.7263 63.494 63.1643 63.764 63.5243 64.148C63.8843 64.52 64.0643 65.012 64.0643 65.624C64.0643 66.392 63.7583 67.016 63.1463 67.496C62.5463 67.976 61.7663 68.216 60.8063 68.216C59.9423 68.216 59.2043 68.024 58.5923 67.64C57.9923 67.256 57.5723 66.758 57.3323 66.146L58.3403 65.552C58.5083 66.02 58.8083 66.392 59.2403 66.668C59.6843 66.932 60.2063 67.064 60.8063 67.064C61.3943 67.064 61.8863 66.95 62.2823 66.722C62.6783 66.482 62.8763 66.116 62.8763 65.624C62.8763 65.216 62.6963 64.892 62.3363 64.652C61.9763 64.412 61.5383 64.226 61.0223 64.094C60.5063 63.962 59.9903 63.818 59.4743 63.662C58.9583 63.494 58.5203 63.224 58.1603 62.852C57.8003 62.468 57.6203 61.97 57.6203 61.358C57.6203 60.626 57.9083 60.014 58.4843 59.522C59.0723 59.03 59.8103 58.784 60.6983 58.784C61.4303 58.784 62.0723 58.952 62.6243 59.288C63.1763 59.612 63.5843 60.056 63.8483 60.62L62.8583 61.196C62.5103 60.356 61.7903 59.936 60.6983 59.936C60.1823 59.936 59.7383 60.062 59.3663 60.314C58.9943 60.554 58.8083 60.902 58.8083 61.358ZM71.7405 58.784C73.0725 58.784 74.1465 59.258 74.9625 60.206C75.7905 61.142 76.2045 62.252 76.2045 63.536C76.2045 63.668 76.1925 63.854 76.1685 64.094H68.2665C68.3865 65.006 68.7705 65.732 69.4185 66.272C70.0785 66.8 70.8885 67.064 71.8485 67.064C72.5325 67.064 73.1205 66.926 73.6125 66.65C74.1165 66.362 74.4945 65.99 74.7465 65.534L75.7905 66.146C75.3945 66.782 74.8545 67.286 74.1705 67.658C73.4865 68.03 72.7065 68.216 71.8305 68.216C70.4145 68.216 69.2625 67.772 68.3745 66.884C67.4865 65.996 67.0425 64.868 67.0425 63.5C67.0425 62.156 67.4805 61.034 68.3565 60.134C69.2325 59.234 70.3605 58.784 71.7405 58.784ZM71.7405 59.936C70.8045 59.936 70.0185 60.218 69.3825 60.782C68.7585 61.334 68.3865 62.054 68.2665 62.942H74.9805C74.8605 61.994 74.4945 61.256 73.8825 60.728C73.2705 60.2 72.5565 59.936 71.7405 59.936ZM81.0822 60.494C81.6342 59.402 82.5822 58.856 83.9262 58.856V60.008C83.1102 60.008 82.4322 60.248 81.8922 60.728C81.3522 61.208 81.0822 61.964 81.0822 62.996V68H79.8942V59H81.0822V60.494ZM92.3001 60.152H89.7081V65.606C89.7081 66.098 89.8041 66.452 89.9961 66.668C90.1881 66.872 90.4761 66.98 90.8601 66.992C91.2441 66.992 91.7241 66.98 92.3001 66.956V68C91.0401 68.192 90.0921 68.102 89.4561 67.73C88.8321 67.358 88.5201 66.65 88.5201 65.606V60.152H86.6301V59H88.5201V56.84L89.7081 56.48V59H92.3001V60.152Z" fill="black"/>
<circle cx="57.5" cy="77.5" r="2.5" fill="#9F3939"/>
</svg>
